<svg width="1440" height="1024" viewBox="0 0 1440 1024" fill="none" xmlns="http://www.w3.org/2000/svg">
<rect width="1440" height="1024" fill="#F3B412"/>
<path d="M548.052 692.765C579.857 740.341 622.906 779.34 673.384 806.305C723.861 833.271 780.21 847.371 837.439 847.358C894.668 847.344 951.011 833.217 1001.48 806.228C1051.94 779.238 1094.97 740.22 1126.75 692.628C1158.54 645.037 1178.09 590.341 1183.69 533.386C1189.29 476.432 1180.75 418.976 1158.84 366.108C1136.92 313.241 1102.31 266.594 1058.06 230.298C1013.82 194.003 961.3 169.18 905.168 158.029L892.558 221.504C938.251 230.581 981.001 250.788 1017.02 280.334C1053.04 309.879 1081.21 347.852 1099.05 390.888C1116.89 433.924 1123.84 480.695 1119.28 527.058C1114.73 573.421 1098.81 617.946 1072.94 656.687C1047.06 695.428 1012.04 727.191 970.956 749.161C929.875 771.131 884.011 782.631 837.424 782.642C790.838 782.653 744.968 771.175 703.877 749.224C662.786 727.273 627.743 695.527 601.852 656.798L548.052 692.765Z" fill="url(#paint0_linear_791_4480)"/>
<g filter="url(#filter0_d_791_4480)">
<path fill-rule="evenodd" clip-rule="evenodd" d="M361 403.148V621.33H494.381V597.893H387.42V523.745H430.58V500.308H387.42V426.586H492.676V403.148H361Z" fill="black"/>
</g>
<g filter="url(#filter1_d_791_4480)">
<path fill-rule="evenodd" clip-rule="evenodd" d="M520 531.33V621.33H647.841V597.893H546.42V531.33H520ZM520 473.33H546.42V403.148H520V473.33Z" fill="black"/>
</g>
<g filter="url(#filter2_d_791_4480)">
<path fill-rule="evenodd" clip-rule="evenodd" d="M699.42 473.33V403.148H673V473.33H699.42ZM699.42 531.33H673V621.33H699.42V531.33Z" fill="black"/>
</g>
<g filter="url(#filter3_d_791_4480)">
<path fill-rule="evenodd" clip-rule="evenodd" d="M723.25 621.33H750.949L772.884 559.54H861.116L883.051 621.33H910.75L877.703 531.33H851.102L852.796 536.103H781.204L782.898 531.33H756.297L723.25 621.33ZM777.594 473.33H803.487L816.148 437.665H817.852L830.513 473.33H856.406L830.636 403.148H803.364L777.594 473.33Z" fill="black"/>
</g>
<g filter="url(#filter4_d_791_4480)">
<path fill-rule="evenodd" clip-rule="evenodd" d="M1049.74 457.528C1048.46 446.733 1043.28 438.352 1034.19 432.386C1025.09 426.42 1013.94 423.437 1000.73 423.437C991.074 423.437 982.623 425 975.378 428.125C968.205 431.25 962.594 435.547 958.546 441.016C954.569 446.484 952.58 452.699 952.58 459.659C952.58 464.797 953.658 469.298 955.813 473.165H934V473.165H928.298C927.441 469.331 927.012 465.255 927.012 460.938C927.012 448.722 930.314 438.068 936.919 428.977C943.596 419.815 952.544 412.713 963.766 407.67C975.059 402.557 987.665 400 1001.59 400C1015.65 400 1028.15 402.521 1039.09 407.564C1050.02 412.536 1058.69 419.354 1065.08 428.018C1071.54 436.683 1074.95 446.52 1075.31 457.528H1049.74ZM997 521.782V496.482L1016.93 501.847C1022.61 503.338 1028.93 505.398 1035.89 508.026C1042.92 510.653 1049.63 514.24 1056.02 518.786C1062.49 523.26 1067.81 529.013 1072 536.044C1076.2 543.075 1078.29 551.705 1078.29 561.932C1078.29 573.722 1075.2 584.375 1069.02 593.892C1062.91 603.409 1053.96 610.973 1042.18 616.584C1030.46 622.195 1016.22 625 999.455 625C983.83 625 970.3 622.479 958.866 617.436C947.502 612.393 938.553 605.362 932.019 596.342C925.556 587.322 921.898 576.847 921.046 564.915H948.319C949.029 573.153 951.799 579.972 956.628 585.369C961.529 590.696 967.708 594.673 975.165 597.301C982.694 599.858 990.79 601.136 999.455 601.136C1009.54 601.136 1018.6 599.503 1026.62 596.236C1034.65 592.898 1041 588.281 1045.69 582.386C1050.38 576.42 1052.72 569.46 1052.72 561.506C1052.72 554.261 1050.7 548.366 1046.65 543.821C1042.6 539.276 1037.27 535.582 1030.67 532.741C1024.06 529.901 1016.93 527.415 1009.26 525.284L997 521.782Z" fill="black"/>
</g>
<path d="M479.422 485.681C481.125 485.478 482.922 485.376 484.812 485.376C486.891 485.376 488.75 485.704 490.391 486.36C492.047 487.017 493.383 487.86 494.398 488.892C495.43 489.907 496.273 491.11 496.93 492.501C497.586 493.892 498.039 495.274 498.289 496.649C498.555 498.009 498.688 499.407 498.688 500.845C498.688 505.579 497.359 509.368 494.703 512.212C492.047 515.056 488.219 516.478 483.219 516.478L479.375 516.431C479.219 509.946 479.141 505.103 479.141 501.899C479.141 496.103 479.234 490.696 479.422 485.681ZM484.461 519.126C479.227 519.126 474 519.188 468.781 519.313C468.391 518.235 468.391 517.228 468.781 516.29C472.172 515.946 473.883 515.485 473.914 514.907C474.102 510.001 474.195 505.087 474.195 500.165C474.195 495.134 474.117 490.782 473.961 487.11C473.93 486.532 472.188 486.071 468.734 485.728C468.469 484.728 468.5 483.72 468.828 482.704C470.75 482.735 476.734 482.751 486.781 482.751C488.953 482.751 490.945 482.884 492.758 483.149C494.586 483.415 496.445 483.954 498.336 484.767C500.227 485.563 501.82 486.61 503.117 487.907C504.414 489.204 505.469 490.954 506.281 493.157C507.094 495.36 507.5 497.938 507.5 500.892C507.5 503.704 507.023 506.196 506.07 508.368C505.117 510.54 503.867 512.29 502.32 513.618C500.789 514.946 498.984 516.04 496.906 516.899C494.828 517.743 492.781 518.321 490.766 518.634C488.75 518.962 486.648 519.126 484.461 519.126ZM483.031 486.524C482.844 492.009 482.75 497.134 482.75 501.899C482.75 505.774 482.812 510.313 482.938 515.517C487.859 515.392 491.555 514.009 494.023 511.368C496.492 508.728 497.727 505.22 497.727 500.845C497.727 499.142 497.523 497.517 497.117 495.97C496.711 494.407 496.062 492.892 495.172 491.423C494.281 489.954 492.977 488.767 491.258 487.86C489.555 486.938 487.547 486.446 485.234 486.384C484.469 486.384 483.734 486.431 483.031 486.524ZM469.438 518.306C472.797 518.212 477.25 518.165 482.797 518.165C484.781 518.165 486.695 518.017 488.539 517.72C490.398 517.407 492.281 516.845 494.188 516.032C496.094 515.22 497.742 514.188 499.133 512.938C500.523 511.688 501.664 510.024 502.555 507.946C503.461 505.868 503.914 503.501 503.914 500.845C503.914 489.423 497.641 483.712 485.094 483.712C483.938 483.712 482.297 483.735 480.172 483.782C478.047 483.829 476.117 483.853 474.383 483.853C472.664 483.853 471.031 483.806 469.484 483.712C469.359 483.993 469.359 484.36 469.484 484.813C473.078 485.157 474.891 485.907 474.922 487.063C475.078 490.735 475.156 495.103 475.156 500.165C475.156 505.118 475.062 510.048 474.875 514.954C474.844 516.11 473.031 516.86 469.438 517.204C469.281 517.563 469.281 517.931 469.438 518.306ZM575.886 498.384C577.136 498.384 578.042 498.79 578.605 499.603C579.167 500.399 579.448 501.399 579.448 502.603C579.448 503.056 579.37 503.571 579.214 504.149H570.073C570.558 502.196 571.339 500.751 572.417 499.813C573.511 498.86 574.667 498.384 575.886 498.384ZM569.839 505.743H582.613C582.863 504.962 582.988 504.157 582.988 503.329C582.988 501.501 582.464 499.97 581.417 498.735C580.386 497.485 578.738 496.86 576.472 496.86C573.519 496.86 571.034 497.931 569.019 500.071C567.003 502.212 565.995 504.931 565.995 508.228C565.995 511.743 566.956 514.392 568.878 516.173C570.8 517.954 573.058 518.845 575.652 518.845C577.573 518.845 579.355 518.329 580.995 517.298C582.652 516.251 583.863 514.681 584.628 512.587C584.409 512.337 584.105 512.165 583.714 512.071C583.652 512.165 583.464 512.423 583.152 512.845C582.855 513.251 582.636 513.548 582.495 513.735C582.355 513.907 582.097 514.165 581.722 514.509C581.363 514.837 581.011 515.079 580.667 515.235C580.339 515.392 579.917 515.548 579.402 515.704C578.886 515.845 578.323 515.915 577.714 515.915C575.308 515.915 573.394 515.204 571.972 513.782C570.55 512.345 569.808 510.415 569.745 507.993C569.745 507.446 569.777 506.696 569.839 505.743ZM583.339 510.97C584.323 511.188 585.12 511.681 585.73 512.446C584.839 514.884 583.464 516.72 581.605 517.954C579.745 519.188 577.761 519.806 575.652 519.806C572.777 519.806 570.284 518.837 568.175 516.899C566.081 514.962 565.034 512.071 565.034 508.228C565.034 504.743 566.105 501.821 568.245 499.462C570.402 497.087 573.448 495.899 577.386 495.899C583.339 495.899 586.316 498.376 586.316 503.329C586.316 504.298 586.089 505.423 585.636 506.704H573.05V508.228C573.128 510.118 573.644 511.657 574.597 512.845C575.55 514.017 576.863 514.704 578.534 514.907C579.519 514.813 580.331 514.478 580.972 513.899C581.613 513.321 582.402 512.345 583.339 510.97ZM578.488 502.603C578.488 500.884 577.909 499.845 576.753 499.485C575.378 499.907 574.355 501.142 573.683 503.188H578.441C578.441 503.126 578.448 503.032 578.464 502.907C578.48 502.782 578.488 502.681 578.488 502.603ZM647.319 518.446C646.569 518.696 645.834 519.001 645.116 519.36C644.381 518.907 643.897 518.446 643.663 517.978C643.694 517.884 643.741 517.563 643.803 517.017C643.866 516.47 643.928 515.829 643.991 515.095C644.069 514.36 644.131 513.603 644.178 512.821C644.225 512.04 644.248 511.376 644.248 510.829C644.983 510.485 646.116 510.313 647.647 510.313C647.819 510.313 647.991 510.313 648.163 510.313C648.334 510.313 648.514 510.321 648.702 510.337C649.827 513.993 651.366 515.978 653.319 516.29C654.116 516.165 654.725 515.876 655.147 515.423C655.584 514.954 655.803 514.431 655.803 513.853C655.803 513.431 655.686 513.04 655.452 512.681C655.217 512.306 654.905 511.962 654.514 511.649C654.123 511.337 653.663 511.048 653.131 510.782C652.616 510.517 652.069 510.259 651.491 510.009C650.913 509.743 650.327 509.493 649.733 509.259C649.139 509.009 648.569 508.751 648.022 508.485C647.444 508.22 646.897 507.899 646.381 507.524C645.866 507.134 645.413 506.696 645.022 506.212C644.631 505.712 644.319 505.165 644.084 504.571C643.866 503.978 643.756 503.337 643.756 502.649C643.756 501.915 643.881 501.149 644.131 500.353C644.381 499.556 644.811 498.829 645.42 498.173C646.03 497.517 646.85 496.978 647.881 496.556C648.913 496.118 650.209 495.899 651.772 495.899C653.506 495.899 654.788 495.993 655.616 496.181L656.483 495.899H658.077C658.28 497.228 658.522 498.47 658.803 499.626C659.1 500.782 659.428 501.86 659.788 502.86C659.116 503.532 658.303 503.868 657.35 503.868C656.819 503.243 656.327 502.681 655.873 502.181C655.42 501.665 654.983 501.22 654.561 500.845C654.155 500.47 653.748 500.165 653.342 499.931C652.952 499.696 652.545 499.532 652.123 499.438C651.092 499.61 650.577 500.079 650.577 500.845C650.577 501.454 650.842 501.985 651.373 502.438C651.905 502.892 652.569 503.306 653.366 503.681C654.163 504.056 655.03 504.415 655.967 504.759C656.92 505.087 657.819 505.438 658.663 505.813C659.272 506.079 659.842 506.423 660.373 506.845C660.92 507.267 661.397 507.759 661.803 508.321C662.209 508.868 662.53 509.485 662.764 510.173C662.998 510.845 663.116 511.571 663.116 512.353C663.116 513.509 662.819 514.548 662.225 515.47C661.647 516.392 660.873 517.173 659.905 517.813C658.952 518.454 657.858 518.946 656.623 519.29C655.389 519.634 654.131 519.806 652.85 519.806C650.647 519.806 648.803 519.353 647.319 518.446ZM652.686 518.845C654.639 518.845 656.311 518.267 657.702 517.11C659.092 515.954 659.788 514.657 659.788 513.22C659.788 511.813 659.358 510.603 658.498 509.587C657.639 508.556 656.6 507.759 655.381 507.196C654.163 506.634 652.936 506.118 651.702 505.649C650.467 505.165 649.42 504.603 648.561 503.962C647.702 503.321 647.272 502.571 647.272 501.712C647.272 500.618 647.678 499.79 648.491 499.228C649.303 498.665 650.256 498.384 651.35 498.384C652.506 498.384 653.538 498.743 654.444 499.462C655.35 500.181 656.459 501.329 657.772 502.907C658.194 502.907 658.498 502.806 658.686 502.603C658.108 500.946 657.248 499.579 656.108 498.501C654.983 497.407 653.538 496.86 651.772 496.86C649.256 496.86 647.452 497.462 646.358 498.665C645.264 499.853 644.717 501.181 644.717 502.649C644.717 503.899 645.131 504.97 645.959 505.86C646.803 506.735 647.811 507.415 648.983 507.899C650.17 508.368 651.35 508.837 652.522 509.306C653.694 509.774 654.694 510.384 655.522 511.134C656.35 511.884 656.764 512.79 656.764 513.853C656.764 514.743 656.381 515.54 655.616 516.243C654.85 516.946 653.78 517.298 652.405 517.298C650.748 517.298 649.467 516.774 648.561 515.728C647.67 514.665 646.92 513.188 646.311 511.298C645.764 511.298 645.397 511.345 645.209 511.438C645.209 512.563 645.155 513.853 645.045 515.306C644.936 516.759 644.827 517.618 644.717 517.884C644.827 518.04 644.975 518.181 645.163 518.306C645.803 517.853 646.295 517.376 646.639 516.876C648.014 517.642 649.084 518.157 649.85 518.423C650.631 518.704 651.577 518.845 652.686 518.845ZM726.369 485.235C729.9 485.235 731.666 486.517 731.666 489.079C731.666 491.642 729.9 492.923 726.369 492.923C725.837 492.923 725.337 492.821 724.869 492.618C724.416 492.415 724.017 492.142 723.673 491.798C723.33 491.438 723.056 491.024 722.853 490.556C722.65 490.087 722.548 489.595 722.548 489.079C722.548 488.563 722.65 488.071 722.853 487.603C723.056 487.134 723.33 486.728 723.673 486.384C724.017 486.024 724.416 485.743 724.869 485.54C725.337 485.337 725.837 485.235 726.369 485.235ZM724.212 487.063C723.744 487.61 723.509 488.282 723.509 489.079C723.509 489.485 723.572 489.868 723.697 490.228C723.837 490.571 724.025 490.876 724.259 491.142C724.494 491.392 724.759 491.595 725.056 491.751C725.369 491.892 725.697 491.962 726.041 491.962C726.369 491.962 726.689 491.892 727.002 491.751C727.314 491.595 727.587 491.392 727.822 491.142C728.056 490.876 728.244 490.571 728.384 490.228C728.525 489.868 728.595 489.485 728.595 489.079C728.595 488.673 728.525 488.298 728.384 487.954C728.244 487.595 728.056 487.29 727.822 487.04C727.587 486.774 727.314 486.571 727.002 486.431C726.689 486.274 726.369 486.196 726.041 486.196C725.712 486.196 725.392 486.267 725.08 486.407C724.767 486.548 724.478 486.767 724.212 487.063ZM733.681 517.087C729.962 516.743 728.087 515.993 728.056 514.837C727.9 510.149 727.837 504.392 727.869 497.563C727.744 497.313 727.47 497.11 727.048 496.954C724.877 497.97 722.619 498.61 720.275 498.876C720.181 499.251 720.181 499.618 720.275 499.978C722.041 500.071 723.384 500.392 724.306 500.938C724.447 506.767 724.431 511.399 724.259 514.837C724.228 515.993 722.9 516.743 720.275 517.087C720.119 517.478 720.119 517.86 720.275 518.235C724.759 518.142 729.228 518.142 733.681 518.235C733.837 517.86 733.837 517.478 733.681 517.087ZM734.548 516.22C734.798 517.188 734.798 518.134 734.548 519.056C729.517 518.899 724.478 518.899 719.431 519.056C719.166 518.134 719.166 517.188 719.431 516.22C721.978 515.97 723.267 515.493 723.298 514.79C723.502 510.415 723.517 505.985 723.345 501.501C722.298 501.188 720.994 500.985 719.431 500.892C719.072 499.954 719.072 498.962 719.431 497.915C721.791 497.79 724.447 497.087 727.4 495.806C729.087 495.931 730.345 496.438 731.173 497.329C731.111 505.017 731.173 510.837 731.361 514.79C731.408 515.493 732.47 515.97 734.548 516.22Z" fill="black"/>
<path d="M796.208 504.571C796.208 502.399 796.614 500.829 797.427 499.86C798.255 498.876 799.294 498.384 800.544 498.384C801.466 498.384 802.317 498.829 803.098 499.72C803.895 500.595 804.294 502.071 804.294 504.149C804.294 508.603 803.075 510.829 800.638 510.829C797.684 510.829 796.208 508.743 796.208 504.571ZM796.114 524.399C796.114 522.681 797.106 521.29 799.091 520.228C800.341 520.103 802.263 520.04 804.856 520.04C806.716 520.04 807.958 520.384 808.583 521.071C809.208 521.759 809.52 522.759 809.52 524.071C809.52 525.196 808.919 526.36 807.716 527.563C806.513 528.782 804.716 529.392 802.325 529.392C800.169 529.392 798.591 528.899 797.591 527.915C796.606 526.946 796.114 525.774 796.114 524.399ZM811.184 497.868C811.606 497.899 811.817 498.118 811.817 498.524C811.817 499.04 811.497 499.345 810.856 499.438C810.309 499.501 809.638 499.376 808.841 499.063C808.419 498.907 807.88 498.688 807.223 498.407C806.567 498.11 806.106 497.907 805.841 497.798C805.575 497.673 805.208 497.532 804.739 497.376C804.27 497.22 803.864 497.118 803.52 497.071C803.192 497.024 802.778 496.978 802.278 496.931C801.794 496.884 801.247 496.86 800.638 496.86C798.263 496.86 796.247 497.657 794.591 499.251C792.95 500.845 792.13 502.603 792.13 504.524C792.13 507.634 793.544 509.97 796.372 511.532C793.841 513.423 792.575 515.118 792.575 516.618C792.575 518.509 794.075 519.681 797.075 520.134C794.013 521.79 792.481 523.774 792.481 526.087C792.481 527.587 793.184 528.837 794.591 529.837C795.997 530.853 798.059 531.36 800.778 531.36C804.013 531.36 806.747 530.29 808.981 528.149C811.231 526.009 812.356 523.829 812.356 521.61C812.356 518.032 810.177 516.243 805.817 516.243C805.333 516.243 804.692 516.259 803.895 516.29C803.098 516.321 802.552 516.337 802.255 516.337C799.864 516.337 798.177 516.181 797.192 515.868C796.223 515.54 795.739 515.024 795.739 514.321C795.739 513.431 796.427 512.696 797.802 512.118C798.755 512.274 799.763 512.353 800.825 512.353C802.934 512.353 804.716 511.618 806.169 510.149C807.638 508.681 808.372 506.696 808.372 504.196C808.372 502.212 807.997 500.712 807.247 499.696L807.364 499.579C807.614 499.751 807.95 499.993 808.372 500.306C808.809 500.603 809.138 500.813 809.356 500.938C809.591 501.063 809.888 501.188 810.247 501.313C810.622 501.438 810.989 501.501 811.348 501.501C811.942 501.501 812.442 501.274 812.848 500.821C813.255 500.353 813.458 499.798 813.458 499.157C813.458 498.485 813.263 497.923 812.872 497.47C812.497 497.001 811.934 496.767 811.184 496.767C810.966 497.173 810.966 497.54 811.184 497.868ZM811.489 502.462C811.614 502.978 811.677 503.556 811.677 504.196C811.677 506.978 810.786 509.196 809.005 510.853C807.239 512.493 805.075 513.313 802.513 513.313H799.583C799.13 513.829 798.997 514.29 799.184 514.696C799.388 515.087 799.763 515.282 800.309 515.282H808.161C813.161 515.282 815.661 517.392 815.661 521.61C815.661 522.735 815.325 523.915 814.653 525.149C813.981 526.384 813.044 527.532 811.841 528.595C810.638 529.673 809.059 530.563 807.106 531.267C805.153 531.97 803.044 532.321 800.778 532.321C797.731 532.321 795.427 531.728 793.864 530.54C792.302 529.368 791.52 527.884 791.52 526.087C791.52 524.103 792.559 522.259 794.638 520.556C792.622 519.853 791.614 518.54 791.614 516.618C791.614 514.962 792.638 513.282 794.684 511.579C792.341 509.892 791.169 507.54 791.169 504.524C791.169 502.384 792.091 500.415 793.934 498.618C795.778 496.806 798.013 495.899 800.638 495.899C802.591 495.899 804.028 496.001 804.95 496.204C805.888 496.407 807.059 496.798 808.466 497.376C809.169 496.329 810.075 495.806 811.184 495.806C812.278 495.806 813.091 496.126 813.622 496.767C814.153 497.407 814.419 498.204 814.419 499.157C814.419 500.079 814.153 500.86 813.622 501.501C813.091 502.142 812.38 502.462 811.489 502.462ZM799.442 524.399C799.442 525.399 799.731 526.274 800.309 527.024C800.903 527.774 801.856 528.228 803.169 528.384C804.966 528.228 806.309 527.673 807.2 526.72C808.106 525.782 808.559 524.899 808.559 524.071C808.559 523.103 808.341 522.345 807.903 521.798C807.466 521.267 806.63 521.001 805.395 521.001C803.911 521.001 802.45 521.063 801.013 521.188C799.966 522.079 799.442 523.149 799.442 524.399ZM799.536 504.571C799.536 507.524 800.177 509.243 801.458 509.728C802.708 509.243 803.333 507.384 803.333 504.149C803.333 501.587 802.677 500.048 801.364 499.532C800.145 500.048 799.536 501.728 799.536 504.571ZM886.32 517.087C886.133 517.446 886.133 517.829 886.32 518.235C890.383 518.142 894.453 518.142 898.531 518.235C898.75 517.86 898.75 517.478 898.531 517.087C894.719 516.899 892.797 516.149 892.766 514.837L892.531 503.048C892.453 500.907 892.102 499.345 891.477 498.36C890.867 497.36 889.789 496.86 888.242 496.86C885.648 496.86 882.562 498.649 878.984 502.228V497.563C878.859 497.313 878.586 497.11 878.164 496.954C875.992 497.97 873.734 498.61 871.391 498.876C871.297 499.251 871.297 499.618 871.391 499.978C873.188 500.071 874.516 500.392 875.375 500.938C875.547 505.61 875.547 510.243 875.375 514.837C875.344 515.993 874 516.743 871.344 517.087C871.156 517.446 871.156 517.829 871.344 518.235C875.406 518.079 879.492 518.079 883.602 518.235C883.789 517.829 883.789 517.446 883.602 517.087C880.68 516.774 879.203 516.024 879.172 514.837C879.047 511.587 878.984 507.884 878.984 503.728C882.125 500.962 884.586 499.579 886.367 499.579C888.07 499.579 888.922 500.993 888.922 503.821L888.875 514.837C888.875 515.603 888.641 516.142 888.172 516.454C887.703 516.751 887.086 516.962 886.32 517.087ZM885.57 519.056C885.18 518.134 885.18 517.188 885.57 516.22C886.07 516.22 886.586 516.087 887.117 515.821C887.648 515.54 887.914 515.212 887.914 514.837L887.961 503.821C887.961 502.118 887.625 501.079 886.953 500.704C885.797 500.985 884.242 501.829 882.289 503.235C882.289 507.532 882.352 511.384 882.477 514.79C882.555 515.618 883.18 516.095 884.352 516.22C884.742 517.188 884.742 518.134 884.352 519.056C879.773 518.899 875.172 518.899 870.547 519.056C870.156 518.134 870.156 517.188 870.547 516.22C873.094 515.876 874.383 515.399 874.414 514.79C874.586 510.384 874.586 505.954 874.414 501.501C873.367 501.188 872.078 500.985 870.547 500.892C870.188 499.954 870.188 498.962 870.547 497.915C872.906 497.79 875.562 497.087 878.516 495.806C880.203 495.931 881.461 496.438 882.289 497.329V498.103C884.508 496.634 887.055 495.899 889.93 495.899C892.039 495.899 893.539 496.478 894.43 497.634C895.336 498.774 895.805 500.579 895.836 503.048C895.898 509.251 895.977 513.181 896.07 514.837C896.102 515.478 897.203 515.938 899.375 516.22C899.734 517.251 899.703 518.196 899.281 519.056C894.703 518.962 890.133 518.962 885.57 519.056ZM959.112 518.446C958.362 518.696 957.628 519.001 956.909 519.36C956.175 518.907 955.691 518.446 955.456 517.978C955.487 517.884 955.534 517.563 955.597 517.017C955.659 516.47 955.722 515.829 955.784 515.095C955.862 514.36 955.925 513.603 955.972 512.821C956.019 512.04 956.042 511.376 956.042 510.829C956.777 510.485 957.909 510.313 959.441 510.313C959.612 510.313 959.784 510.313 959.956 510.313C960.128 510.313 960.308 510.321 960.495 510.337C961.62 513.993 963.159 515.978 965.112 516.29C965.909 516.165 966.519 515.876 966.941 515.423C967.378 514.954 967.597 514.431 967.597 513.853C967.597 513.431 967.48 513.04 967.245 512.681C967.011 512.306 966.698 511.962 966.308 511.649C965.917 511.337 965.456 511.048 964.925 510.782C964.409 510.517 963.862 510.259 963.284 510.009C962.706 509.743 962.12 509.493 961.527 509.259C960.933 509.009 960.362 508.751 959.816 508.485C959.237 508.22 958.691 507.899 958.175 507.524C957.659 507.134 957.206 506.696 956.816 506.212C956.425 505.712 956.112 505.165 955.878 504.571C955.659 503.978 955.55 503.337 955.55 502.649C955.55 501.915 955.675 501.149 955.925 500.353C956.175 499.556 956.605 498.829 957.214 498.173C957.823 497.517 958.644 496.978 959.675 496.556C960.706 496.118 962.003 495.899 963.566 495.899C965.3 495.899 966.581 495.993 967.409 496.181L968.277 495.899H969.87C970.073 497.228 970.316 498.47 970.597 499.626C970.894 500.782 971.222 501.86 971.581 502.86C970.909 503.532 970.097 503.868 969.144 503.868C968.612 503.243 968.12 502.681 967.667 502.181C967.214 501.665 966.777 501.22 966.355 500.845C965.948 500.47 965.542 500.165 965.136 499.931C964.745 499.696 964.339 499.532 963.917 499.438C962.886 499.61 962.37 500.079 962.37 500.845C962.37 501.454 962.636 501.985 963.167 502.438C963.698 502.892 964.362 503.306 965.159 503.681C965.956 504.056 966.823 504.415 967.761 504.759C968.714 505.087 969.612 505.438 970.456 505.813C971.066 506.079 971.636 506.423 972.167 506.845C972.714 507.267 973.191 507.759 973.597 508.321C974.003 508.868 974.323 509.485 974.558 510.173C974.792 510.845 974.909 511.571 974.909 512.353C974.909 513.509 974.612 514.548 974.019 515.47C973.441 516.392 972.667 517.173 971.698 517.813C970.745 518.454 969.652 518.946 968.417 519.29C967.183 519.634 965.925 519.806 964.644 519.806C962.441 519.806 960.597 519.353 959.112 518.446ZM964.48 518.845C966.433 518.845 968.105 518.267 969.495 517.11C970.886 515.954 971.581 514.657 971.581 513.22C971.581 511.813 971.152 510.603 970.292 509.587C969.433 508.556 968.394 507.759 967.175 507.196C965.956 506.634 964.73 506.118 963.495 505.649C962.261 505.165 961.214 504.603 960.355 503.962C959.495 503.321 959.066 502.571 959.066 501.712C959.066 500.618 959.472 499.79 960.284 499.228C961.097 498.665 962.05 498.384 963.144 498.384C964.3 498.384 965.331 498.743 966.237 499.462C967.144 500.181 968.253 501.329 969.566 502.907C969.987 502.907 970.292 502.806 970.48 502.603C969.902 500.946 969.042 499.579 967.902 498.501C966.777 497.407 965.331 496.86 963.566 496.86C961.05 496.86 959.245 497.462 958.152 498.665C957.058 499.853 956.511 501.181 956.511 502.649C956.511 503.899 956.925 504.97 957.753 505.86C958.597 506.735 959.605 507.415 960.777 507.899C961.964 508.368 963.144 508.837 964.316 509.306C965.487 509.774 966.487 510.384 967.316 511.134C968.144 511.884 968.558 512.79 968.558 513.853C968.558 514.743 968.175 515.54 967.409 516.243C966.644 516.946 965.573 517.298 964.198 517.298C962.542 517.298 961.261 516.774 960.355 515.728C959.464 514.665 958.714 513.188 958.105 511.298C957.558 511.298 957.191 511.345 957.003 511.438C957.003 512.563 956.948 513.853 956.839 515.306C956.73 516.759 956.62 517.618 956.511 517.884C956.62 518.04 956.769 518.181 956.956 518.306C957.597 517.853 958.089 517.376 958.433 516.876C959.808 517.642 960.878 518.157 961.644 518.423C962.425 518.704 963.37 518.845 964.48 518.845Z" fill="url(#paint1_linear_791_4480)"/>
<defs>
<filter id="filter0_d_791_4480" x="361" y="403.148" width="133.381" height="228.182" filterUnits="userSpaceOnUse" color-interpolation-filters="sRGB">
<feFlood flood-opacity="0" result="BackgroundImageFix"/>
<feColorMatrix in="SourceAlpha" type="matrix" values="0 0 0 0 0 0 0 0 0 0 0 0 0 0 0 0 0 0 127 0" result="hardAlpha"/>
<feOffset dy="10"/>
<feComposite in2="hardAlpha" operator="out"/>
<feColorMatrix type="matrix" values="0 0 0 0 0 0 0 0 0 0 0 0 0 0 0 0 0 0 0.5 0"/>
<feBlend mode="normal" in2="BackgroundImageFix" result="effect1_dropShadow_791_4480"/>
<feBlend mode="normal" in="SourceGraphic" in2="effect1_dropShadow_791_4480" result="shape"/>
</filter>
<filter id="filter1_d_791_4480" x="520" y="403.148" width="127.841" height="228.182" filterUnits="userSpaceOnUse" color-interpolation-filters="sRGB">
<feFlood flood-opacity="0" result="BackgroundImageFix"/>
<feColorMatrix in="SourceAlpha" type="matrix" values="0 0 0 0 0 0 0 0 0 0 0 0 0 0 0 0 0 0 127 0" result="hardAlpha"/>
<feOffset dy="10"/>
<feComposite in2="hardAlpha" operator="out"/>
<feColorMatrix type="matrix" values="0 0 0 0 0 0 0 0 0 0 0 0 0 0 0 0 0 0 0.5 0"/>
<feBlend mode="normal" in2="BackgroundImageFix" result="effect1_dropShadow_791_4480"/>
<feBlend mode="normal" in="SourceGraphic" in2="effect1_dropShadow_791_4480" result="shape"/>
</filter>
<filter id="filter2_d_791_4480" x="673" y="403.148" width="26.4209" height="228.182" filterUnits="userSpaceOnUse" color-interpolation-filters="sRGB">
<feFlood flood-opacity="0" result="BackgroundImageFix"/>
<feColorMatrix in="SourceAlpha" type="matrix" values="0 0 0 0 0 0 0 0 0 0 0 0 0 0 0 0 0 0 127 0" result="hardAlpha"/>
<feOffset dy="10"/>
<feComposite in2="hardAlpha" operator="out"/>
<feColorMatrix type="matrix" values="0 0 0 0 0 0 0 0 0 0 0 0 0 0 0 0 0 0 0.5 0"/>
<feBlend mode="normal" in2="BackgroundImageFix" result="effect1_dropShadow_791_4480"/>
<feBlend mode="normal" in="SourceGraphic" in2="effect1_dropShadow_791_4480" result="shape"/>
</filter>
<filter id="filter3_d_791_4480" x="723.25" y="403.148" width="187.5" height="228.182" filterUnits="userSpaceOnUse" color-interpolation-filters="sRGB">
<feFlood flood-opacity="0" result="BackgroundImageFix"/>
<feColorMatrix in="SourceAlpha" type="matrix" values="0 0 0 0 0 0 0 0 0 0 0 0 0 0 0 0 0 0 127 0" result="hardAlpha"/>
<feOffset dy="10"/>
<feComposite in2="hardAlpha" operator="out"/>
<feColorMatrix type="matrix" values="0 0 0 0 0 0 0 0 0 0 0 0 0 0 0 0 0 0 0.5 0"/>
<feBlend mode="normal" in2="BackgroundImageFix" result="effect1_dropShadow_791_4480"/>
<feBlend mode="normal" in="SourceGraphic" in2="effect1_dropShadow_791_4480" result="shape"/>
</filter>
<filter id="filter4_d_791_4480" x="921.046" y="400" width="157.244" height="235" filterUnits="userSpaceOnUse" color-interpolation-filters="sRGB">
<feFlood flood-opacity="0" result="BackgroundImageFix"/>
<feColorMatrix in="SourceAlpha" type="matrix" values="0 0 0 0 0 0 0 0 0 0 0 0 0 0 0 0 0 0 127 0" result="hardAlpha"/>
<feOffset dy="10"/>
<feComposite in2="hardAlpha" operator="out"/>
<feColorMatrix type="matrix" values="0 0 0 0 0 0 0 0 0 0 0 0 0 0 0 0 0 0 0.5 0"/>
<feBlend mode="normal" in2="BackgroundImageFix" result="effect1_dropShadow_791_4480"/>
<feBlend mode="normal" in="SourceGraphic" in2="effect1_dropShadow_791_4480" result="shape"/>
</filter>
<linearGradient id="paint0_linear_791_4480" x1="1179.59" y1="436.257" x2="495.126" y2="562.459" gradientUnits="userSpaceOnUse">
<stop stop-color="#FEFE14"/>
<stop offset="1" stop-color="#F40606" stop-opacity="0"/>
</linearGradient>
<linearGradient id="paint1_linear_791_4480" x1="1018.62" y1="433.697" x2="868.938" y2="702.904" gradientUnits="userSpaceOnUse">
<stop stop-color="#E90909"/>
<stop offset="1" stop-color="#666666"/>
</linearGradient>
</defs>
</svg>
